<?xml version="1.0" standalone="no"?>
<!DOCTYPE svg PUBLIC "-//W3C//DTD SVG 20010904//EN"
 "http://www.w3.org/TR/2001/REC-SVG-20010904/DTD/svg10.dtd">
<svg version="1.0" xmlns="http://www.w3.org/2000/svg"
 width="1200.000000pt" height="1200.000000pt" viewBox="0 0 1200.000000 1200.000000"
 preserveAspectRatio="xMidYMid meet">

<g transform="translate(0.000000,1200.000000) scale(0.100000,-0.100000)"
fill="#000000" stroke="none">
<path d="M7389 11963 c-323 -344 -678 -1161 -862 -1988 -103 -457 -149 -785
-151 -1056 l-1 -185 -110 89 c-429 347 -931 557 -1490 622 -193 22 -555 20
-720 -4 -71 -11 -149 -24 -172 -29 l-41 -9 -94 103 c-204 227 -493 467 -838
696 -149 99 -769 450 -920 520 -412 193 -734 310 -1175 428 -173 46 -270 66
-390 81 -200 24 -205 24 -205 1 0 -25 177 -284 295 -433 351 -440 772 -827
1306 -1199 491 -343 961 -577 1294 -647 44 -9 83 -19 87 -22 3 -3 -20 -39 -52
-79 -83 -103 -344 -614 -406 -795 -70 -204 -145 -348 -288 -551 -106 -151
-130 -192 -152 -260 -45 -143 -52 -280 -23 -476 10 -72 65 -304 79 -335 5 -11
28 -71 50 -133 40 -110 176 -414 205 -458 l14 -22 -182 5 c-201 6 -302 -3
-453 -42 -103 -27 -255 -94 -331 -146 -159 -109 -290 -295 -330 -468 -21 -95
-21 -243 1 -335 76 -318 341 -599 656 -697 41 -13 76 -24 78 -25 1 0 -23 -72
-54 -160 -31 -87 -86 -249 -124 -359 -38 -110 -128 -371 -200 -580 -267 -771
-333 -962 -356 -1035 -92 -285 -58 -573 94 -796 22 -33 72 -90 112 -127 39
-38 70 -70 68 -71 -1 -1 -46 -18 -98 -38 -215 -80 -474 -214 -578 -298 -71
-57 -92 -91 -74 -120 8 -14 9 -26 3 -37 -22 -40 28 -83 97 -83 20 -1 48 -7 62
-15 39 -22 130 -18 461 20 309 35 960 142 1021 168 73 31 128 99 128 161 0 22
5 25 53 30 56 6 426 38 672 58 l151 12 289 -53 c160 -29 452 -84 650 -121 198
-38 446 -80 550 -95 260 -36 235 -27 235 -81 0 -57 25 -95 77 -117 21 -9 175
-44 343 -77 373 -75 479 -101 780 -192 331 -99 435 -118 475 -87 6 4 30 11 54
15 67 11 82 34 77 117 -4 67 -5 71 -52 119 -122 124 -511 363 -755 463 -44 18
-82 35 -85 38 -3 3 16 27 42 53 187 192 238 464 156 839 -17 77 -39 168 -50
203 -15 45 -17 62 -7 62 6 0 122 -32 256 -71 276 -81 335 -96 346 -86 4 4 22
199 40 434 18 235 35 428 37 430 2 3 104 -25 226 -62 170 -50 225 -63 236 -55
12 11 88 139 372 625 245 420 285 485 298 485 7 0 48 -11 91 -24 43 -14 193
-58 333 -100 140 -41 426 -125 635 -186 209 -62 508 -150 664 -196 156 -46
290 -84 297 -84 7 0 110 105 229 233 120 127 454 466 742 752 400 396 524 525
522 540 -8 39 -292 174 -641 304 -519 194 -1184 368 -1798 471 -228 38 -291
45 -685 75 -181 14 -352 27 -380 30 -27 2 -90 7 -140 10 -49 3 -104 8 -122 11
l-32 5 16 34 c19 41 25 41 118 15 38 -11 77 -20 86 -20 26 0 41 48 29 90 -16
55 -13 70 13 70 13 0 32 9 42 20 16 18 17 27 9 70 l-10 48 38 15 c54 22 66 54
42 114 -10 26 -20 51 -22 54 -2 4 18 10 43 13 96 15 70 75 -86 200 -107 86
-110 92 -84 165 17 48 13 64 -22 86 -20 14 -42 15 -126 11 -56 -4 -145 -9
-197 -12 -318 -18 -635 -98 -890 -225 -74 -37 -136 -66 -137 -65 -6 6 18 292
33 391 18 126 57 319 141 695 l65 295 -5 178 -5 179 54 85 c220 350 390 867
518 1573 160 880 181 1809 51 2263 -31 107 -65 181 -85 185 -9 1 -31 -14 -51
-35z m-402 -1052 c194 -146 389 -399 491 -636 l30 -70 -38 -265 c-74 -512 -93
-612 -166 -900 -104 -414 -221 -726 -370 -990 l-48 -85 -8 33 c-10 36 -31 50
-51 33 -11 -8 -10 -27 6 -98 14 -65 19 -133 20 -258 1 -159 -1 -179 -31 -305
-107 -454 -170 -772 -187 -941 l-7 -66 -61 14 c-189 44 -438 -117 -610 -395
-59 -96 -101 -205 -117 -304 -17 -105 -1 -189 49 -264 35 -51 111 -114 139
-114 31 0 2 -24 -125 -102 -148 -91 -299 -162 -508 -240 l-130 -48 65 6 c36 4
90 13 120 21 30 9 73 19 95 23 47 10 215 86 330 149 417 229 668 499 759 815
14 48 26 99 26 113 0 37 42 68 184 137 154 75 243 107 386 140 202 47 375 68
638 80 139 7 129 15 108 -95 -23 -118 -27 -215 -10 -229 27 -23 41 -4 49 64 3
36 9 66 11 66 3 0 45 -34 95 -75 l90 -75 -41 -6 c-70 -11 -81 -62 -30 -134 22
-31 21 -34 -37 -60 -53 -23 -59 -37 -39 -85 19 -44 14 -55 -23 -55 -15 0 -35
-6 -45 -13 -16 -11 -16 -17 -2 -75 13 -58 13 -62 -2 -58 -103 31 -153 38 -173
25 -11 -8 -66 -85 -122 -171 -80 -122 -163 -227 -385 -486 -164 -193 -327
-372 -390 -430 -298 -278 -688 -570 -954 -716 -72 -40 -85 -57 -62 -81 14 -13
20 -13 56 6 l41 21 -7 -79 c-22 -252 -26 -325 -26 -489 0 -330 29 -575 95
-804 20 -69 84 -279 141 -468 111 -359 124 -417 123 -547 0 -242 -93 -431
-275 -558 -63 -43 -72 -54 -59 -63 8 -6 15 -16 15 -23 0 -16 8 -14 40 9 l28
20 74 -26 c181 -65 609 -313 744 -432 64 -57 50 -49 -141 79 -88 58 -188 120
-221 137 -58 29 -63 30 -77 14 -9 -10 -13 -23 -9 -29 4 -7 46 -33 92 -59 91
-50 409 -265 436 -295 15 -17 15 -18 -10 -25 -23 -5 -32 0 -66 39 -29 32 -88
72 -217 145 -197 112 -294 156 -324 147 -47 -15 -10 -42 209 -150 198 -98 312
-169 312 -195 0 -34 -146 -11 -360 57 -128 40 -601 154 -1015 244 -77 17 -152
37 -167 45 -36 19 -59 54 -52 80 5 20 15 21 147 27 220 10 420 46 441 80 8 12
7 21 -5 32 -14 15 -23 14 -95 -4 -120 -31 -205 -41 -364 -41 -134 0 -173 5
-525 66 -209 36 -546 95 -750 130 l-370 64 275 -6 c219 -4 279 -3 293 8 16 12
16 15 1 37 l-17 23 -391 -6 c-426 -7 -402 -6 -691 -36 -325 -33 -881 -79 -902
-74 -25 7 -56 -27 -47 -51 6 -16 17 -17 98 -11 50 4 112 9 139 13 l47 6 0 -31
c0 -33 -40 -75 -96 -98 -67 -28 -271 -66 -534 -100 -151 -19 -392 -50 -534
-69 -142 -19 -277 -35 -300 -35 l-41 0 60 40 c67 44 165 85 300 125 105 31
121 41 103 62 -33 40 -319 -55 -466 -154 -62 -41 -102 -52 -130 -34 -25 16
106 92 342 198 66 29 123 59 127 65 9 14 -7 38 -24 38 -16 0 -297 -134 -380
-181 -116 -66 -99 -27 27 60 137 94 477 251 614 282 44 11 51 9 117 -24 71
-36 221 -87 254 -87 10 0 24 7 31 16 19 22 -3 38 -75 53 -116 25 -260 100
-377 197 -144 121 -234 318 -245 539 -9 193 4 244 246 925 56 157 146 411 201
565 55 154 136 384 181 510 45 127 99 286 119 355 37 123 38 125 66 123 196
-12 433 -14 514 -4 129 16 304 56 430 98 117 40 402 161 467 198 45 27 46 27
150 -21 70 -32 88 -11 80 90 l-7 74 59 -5 c119 -11 138 12 91 105 -16 33 -30
62 -30 64 0 3 23 8 51 10 60 6 95 34 84 67 -3 11 -24 43 -45 70 l-40 50 48 6
c88 12 110 30 97 82 -7 28 -72 98 -134 144 l-34 25 27 51 c37 74 35 80 -27 87
-74 10 -140 43 -233 118 -98 79 -241 169 -354 221 -162 76 -397 146 -565 170
l-90 12 -80 160 c-77 152 -185 409 -185 438 0 10 18 16 58 19 184 17 340 207
407 496 10 40 15 116 15 206 0 227 -49 386 -148 483 -24 24 -61 48 -82 54
l-39 12 60 121 c32 66 104 238 159 381 78 201 120 293 184 405 84 148 191 297
287 403 29 31 49 57 45 57 -11 0 -68 -31 -96 -52 -24 -18 -30 -18 -105 -3
-200 38 -373 103 -645 241 -211 107 -483 274 -700 429 -146 105 -148 107 -178
174 -87 195 -161 712 -132 927 6 49 12 90 13 91 7 7 382 -164 592 -270 649
-328 1169 -692 1544 -1083 l114 -119 -36 -10 c-48 -14 -76 -40 -59 -57 10 -10
31 -8 100 10 48 12 213 35 368 52 l281 30 319 -35 c175 -19 360 -45 409 -57
234 -55 563 -197 793 -342 172 -109 357 -259 513 -418 80 -81 152 -148 161
-148 9 0 19 7 22 16 6 17 -71 107 -170 199 l-44 41 -10 120 c-25 313 72 948
230 1493 90 311 222 691 241 691 4 0 43 -27 86 -59z m-4424 -5141 c437 -30
851 -184 1117 -415 58 -50 132 -89 194 -100 40 -8 41 -10 21 -45 -8 -14 -14
-39 -15 -57 0 -27 9 -38 59 -77 57 -44 101 -90 101 -106 0 -4 -25 -11 -57 -15
-69 -8 -80 -12 -87 -32 -6 -13 54 -116 75 -129 21 -13 6 -23 -37 -26 -37 -2
-51 -9 -67 -30 l-20 -27 26 -60 26 -61 -43 0 c-106 0 -130 -21 -119 -110 3
-27 4 -50 2 -50 -2 0 -28 9 -57 20 -68 26 -92 25 -153 -5 -60 -31 -329 -148
-401 -175 -146 -54 -229 -72 -466 -100 -238 -27 -245 -28 -410 -14 -195 16
-287 40 -405 108 -220 126 -377 317 -449 548 -32 105 -32 273 0 378 109 346
398 535 892 583 71 7 128 6 273 -3z m5801 -401 c595 -43 699 -57 1176 -154
716 -146 1435 -374 1863 -592 70 -35 127 -68 127 -73 0 -8 -513 -531 -1200
-1222 l-225 -227 -280 84 c-399 118 -1019 301 -1090 321 -33 9 -194 56 -358
105 -164 49 -304 89 -312 89 -8 0 -22 -15 -31 -32 -9 -18 -54 -96 -99 -173
-45 -77 -140 -239 -211 -360 -255 -438 -325 -555 -333 -555 -5 0 -105 29 -224
65 -119 36 -223 65 -232 65 -21 0 -35 -40 -36 -103 0 -29 -4 -61 -9 -72 l-9
-20 0 20 c-3 55 -19 41 -47 -39 -15 -47 -30 -83 -32 -81 -2 2 -10 50 -18 106
-14 97 -19 118 -28 108 -2 -2 -22 -41 -45 -86 -23 -46 -43 -83 -45 -83 -3 0
-9 25 -15 55 -6 30 -16 81 -22 113 l-12 57 -27 -109 c-15 -60 -29 -105 -32
-100 -3 5 -13 45 -23 89 -21 98 -22 100 -46 79 -10 -9 -19 -13 -19 -8 0 5 -18
171 -40 368 -22 198 -39 361 -37 363 2 1 153 -27 337 -62 202 -40 337 -62 343
-56 5 5 46 191 92 413 46 221 122 592 169 824 48 231 90 433 94 447 4 14 82
127 175 251 128 174 172 226 189 226 12 0 269 -18 572 -41z m-1025 -559 c-6
-25 -48 -229 -94 -455 -143 -698 -214 -1038 -219 -1043 -6 -5 -13 -4 -393 67
-150 28 -282 51 -293 51 -18 0 -21 -5 -16 -27 2 -16 8 -59 11 -98 4 -38 29
-272 56 -519 28 -246 47 -451 44 -454 -5 -6 -302 84 -325 98 -17 10 -46 156
-66 325 -19 165 -16 385 12 773 l18 253 35 21 c355 215 831 612 1121 933 62
69 114 124 116 122 2 -1 -2 -23 -7 -47z"/>
<path d="M3453 8260 c-172 -41 -299 -222 -279 -399 20 -179 175 -310 353 -299
138 9 265 97 326 226 29 60 32 77 32 157 0 77 -4 98 -27 147 -53 114 -166 189
-281 187 -29 -1 -85 -9 -124 -19z m274 -105 c114 -75 60 -255 -77 -255 -129 0
-188 156 -92 243 42 39 120 44 169 12z"/>
<path d="M5872 7559 c-58 -11 -97 -37 -164 -106 -69 -74 -93 -136 -92 -248 1
-109 30 -182 101 -256 29 -31 79 -69 110 -85 51 -26 68 -29 148 -29 81 0 96 3
143 30 72 39 142 118 167 186 15 42 19 75 17 152 -4 130 -22 172 -114 259
-102 96 -188 123 -316 97z m135 -80 c114 -70 66 -249 -67 -249 -81 0 -145 61
-143 137 3 105 120 168 210 112z"/>
<path d="M4550 7451 c-15 -30 -12 -42 17 -73 21 -22 36 -28 70 -28 48 0 103
23 103 44 0 17 -39 52 -73 65 -47 18 -105 14 -117 -8z"/>
<path d="M3773 7214 c-7 -19 18 -66 57 -109 l28 -30 -16 -230 c-13 -195 -14
-262 -4 -455 24 -432 70 -640 172 -776 60 -79 99 -99 196 -99 73 0 87 4 157
38 96 47 198 128 302 238 115 122 267 328 356 482 19 32 49 84 67 115 45 77
152 294 152 308 0 7 17 15 37 19 42 8 108 39 119 56 3 6 -1 18 -9 26 -14 14
-21 13 -71 -8 -52 -21 -62 -22 -122 -12 -124 22 -280 113 -479 281 -49 42 -96
82 -103 89 -20 19 -76 16 -336 -17 -201 -26 -245 -29 -303 -20 -85 13 -108 25
-135 69 -32 53 -54 64 -65 35z"/>
</g>
</svg>
