<?xml version="1.0" standalone="no"?>
<!DOCTYPE svg PUBLIC "-//W3C//DTD SVG 20010904//EN"
 "http://www.w3.org/TR/2001/REC-SVG-20010904/DTD/svg10.dtd">
<svg version="1.0" xmlns="http://www.w3.org/2000/svg"
 width="736.000000pt" height="835.000000pt" viewBox="0 0 736.000000 835.000000"
 preserveAspectRatio="xMidYMid meet">

<g transform="translate(0.000000,835.000000) scale(0.100000,-0.100000)"
fill="#000000" stroke="none">
<path d="M2713 7990 c-72 -5 -147 -13 -165 -18 -18 -6 -71 -16 -118 -22 -228
-31 -635 -153 -850 -256 -194 -93 -426 -236 -437 -270 -2 -6 22 -16 54 -23 79
-17 226 -59 293 -83 30 -10 75 -25 100 -32 78 -22 290 -136 417 -223 143 -98
268 -197 276 -218 7 -17 7 -18 -74 -48 -356 -134 -717 -459 -908 -817 -114
-215 -213 -500 -228 -657 -3 -35 -2 -63 2 -63 10 0 94 48 115 65 35 30 254
137 353 174 97 36 242 67 402 86 118 13 457 -29 514 -65 16 -9 14 -13 -80
-140 -101 -138 -210 -363 -253 -521 -34 -127 -53 -340 -38 -422 6 -34 16 -92
23 -130 13 -75 86 -230 111 -235 9 -2 38 25 68 60 201 238 379 376 591 458 46
18 89 34 95 37 6 2 23 -16 38 -41 14 -24 49 -65 77 -89 l52 -45 -45 -54 c-162
-191 -259 -518 -243 -818 7 -116 20 -190 33 -190 4 0 25 24 46 52 50 69 136
141 211 178 111 55 305 97 367 79 30 -8 158 -123 158 -142 0 -4 -30 -58 -67
-120 -69 -114 -183 -243 -250 -282 -48 -28 -41 -39 21 -31 127 14 291 109 402
230 104 114 110 95 79 -224 -12 -123 -26 -211 -51 -328 -6 -29 -49 -48 -129
-57 -128 -15 -229 -55 -265 -104 -11 -17 -31 -73 -42 -125 -21 -92 -21 -97 -5
-149 9 -30 17 -61 17 -71 0 -9 -23 -53 -51 -96 -81 -127 -96 -229 -42 -293 29
-35 29 -46 0 -88 -35 -53 -76 -194 -97 -340 -38 -262 -20 -721 36 -894 40
-122 69 -191 92 -214 22 -21 29 -23 83 -17 172 17 423 180 689 446 155 155
272 309 351 463 38 75 65 117 76 117 8 0 68 -12 132 -26 212 -46 255 -54 411
-70 321 -33 783 -17 1067 37 136 26 173 45 173 91 -1 91 -274 422 -470 571
-110 83 -259 168 -453 258 -95 44 -179 84 -187 88 -11 6 -16 34 -20 113 -5 99
-7 106 -37 145 -39 48 -39 52 -13 121 30 79 27 115 -16 161 -53 59 -171 91
-337 91 -93 0 -91 -2 -106 142 -13 110 -14 202 -5 311 l7 75 66 46 c79 54 107
82 200 205 64 86 75 96 118 109 27 8 75 15 108 16 33 1 66 5 74 10 7 5 41 9
75 10 76 1 114 26 149 97 35 68 24 94 -63 164 -71 57 -110 99 -110 120 0 7 14
42 30 78 32 72 37 117 18 180 -15 50 -66 103 -108 112 -21 5 -38 18 -50 38
-62 107 -65 110 -127 139 -35 15 -86 43 -115 62 -70 44 -115 58 -189 57 -43 0
-76 -7 -116 -25 -57 -27 -103 -34 -103 -16 0 5 15 17 33 26 17 9 48 30 68 45
20 16 40 29 43 29 4 0 55 36 114 79 166 123 277 249 359 412 34 66 46 79 108
120 168 111 226 234 143 304 -17 14 -42 25 -59 25 -34 0 -33 -5 -13 101 11 56
14 111 11 164 -3 48 0 110 8 155 35 197 26 365 -29 501 -31 78 -31 80 -7 127
31 63 71 287 74 413 2 128 -9 169 -51 189 -64 30 -366 14 -510 -26 -188 -54
-150 -59 -313 43 -262 162 -506 261 -832 337 -59 14 -254 44 -287 45 -19 0
-66 5 -105 10 -81 11 -371 12 -562 1z m406 -556 c101 -29 195 -73 199 -95 2
-9 -15 -23 -43 -37 -90 -44 -188 -116 -268 -198 -45 -46 -87 -84 -93 -84 -20
0 -36 98 -41 250 -3 94 -1 155 6 174 l11 29 72 -7 c39 -4 110 -19 157 -32z
m775 -339 c27 -8 79 -32 115 -52 88 -49 253 -213 315 -315 52 -85 137 -271
161 -356 23 -78 97 -228 140 -284 43 -57 83 -80 133 -76 l37 3 6 -53 c7 -53
31 -102 50 -102 30 0 78 69 104 150 23 72 27 106 30 225 3 139 3 141 55 289
74 218 89 248 114 244 32 -5 90 -132 116 -253 37 -180 37 -475 -1 -559 -6 -13
-30 -29 -58 -39 -71 -25 -134 -63 -190 -113 -50 -45 -50 -45 -93 -33 -74 19
-142 5 -348 -76 -298 -117 -345 -128 -499 -123 -83 4 -134 11 -180 27 -179 60
-381 152 -414 189 -26 28 -74 159 -108 292 -91 358 -13 821 161 962 80 63 240
87 354 53z m1011 -967 c-16 -96 -55 -140 -55 -63 0 35 35 105 52 105 6 0 7
-16 3 -42z m412 -263 c7 -19 -18 -47 -74 -86 -53 -37 -93 -39 -93 -6 0 28 18
46 85 81 57 30 73 32 82 11z m-1887 -115 c30 -12 105 -46 166 -76 193 -94 369
-144 513 -144 95 0 167 15 281 60 315 122 384 144 457 145 39 0 75 -4 79 -8 5
-4 0 -31 -9 -58 -35 -97 8 -149 124 -149 l61 0 -7 -27 c-35 -145 -314 -416
-550 -536 -159 -80 -296 -116 -466 -124 -218 -9 -293 -5 -389 22 -246 69 -399
161 -523 312 -69 86 -112 170 -138 272 -18 70 -19 89 -9 138 21 103 77 174
154 194 55 15 196 3 256 -21z m1448 -879 c146 -75 227 -246 172 -363 -33 -71
-50 -82 -107 -71 l-48 9 3 66 c5 83 -9 125 -52 167 -78 76 -167 69 -247 -18
-25 -28 -50 -51 -56 -51 -20 0 -35 56 -28 104 11 71 56 132 118 162 45 21 63
24 127 21 52 -3 88 -11 118 -26z m-380 -12 l30 -10 -24 -55 c-16 -36 -24 -73
-24 -109 0 -30 -4 -55 -9 -55 -5 0 -35 27 -67 61 -33 33 -74 70 -92 81 -18 11
-31 25 -29 31 2 6 28 19 58 29 29 11 65 23 79 28 35 12 43 12 78 -1z m-1270
-23 c15 -8 47 -37 70 -65 25 -29 72 -67 108 -88 35 -21 64 -40 64 -44 0 -4
-26 -21 -57 -39 -32 -18 -83 -57 -115 -87 -64 -63 -73 -64 -152 -12 -56 38
-102 96 -116 151 -33 120 94 238 198 184z m1014 -64 c120 -59 198 -170 198
-283 0 -51 -46 -91 -99 -87 -35 3 -36 4 -42 53 -19 152 -150 242 -373 257 -52
4 -55 21 -9 49 55 35 109 48 188 46 57 -2 84 -9 137 -35z m866 -54 c34 -50 62
-126 62 -169 0 -41 -24 -95 -48 -108 -18 -10 -62 -16 -62 -8 0 1 9 26 20 55
25 66 25 137 0 209 -23 67 -23 63 -10 63 5 0 22 -19 38 -42z m-321 -41 c44
-25 68 -68 68 -123 0 -49 -3 -55 -77 -145 -119 -146 -236 -251 -316 -284 -55
-24 -216 -15 -245 14 -7 7 0 32 26 88 20 43 39 90 43 106 5 24 11 27 46 27 77
0 141 50 225 177 19 29 56 75 82 103 41 44 52 50 87 50 21 -1 49 -6 61 -13z
m-710 -26 c120 -41 168 -103 167 -216 0 -101 -35 -198 -89 -252 -48 -49 -95
-59 -95 -22 0 14 -5 19 -17 17 -24 -4 -29 -65 -9 -112 17 -41 36 -47 36 -12 0
14 5 28 11 32 23 14 39 -23 45 -102 5 -70 3 -83 -18 -119 -48 -83 -159 -107
-232 -51 -44 33 -93 131 -107 215 -20 111 22 259 87 310 30 23 27 39 -4 22
-27 -15 -73 -78 -89 -122 -7 -21 -18 -70 -23 -108 -10 -59 -8 -80 10 -152 11
-45 31 -102 45 -125 33 -55 32 -64 -7 -64 -120 0 -189 67 -224 217 -23 102 2
232 61 309 18 23 22 34 12 34 -20 0 -72 -76 -92 -135 -11 -32 -17 -83 -18
-140 -1 -77 3 -100 26 -155 37 -86 37 -85 0 -88 -34 -3 -98 24 -125 55 -95
105 -75 350 41 476 28 30 22 35 -14 11 -38 -25 -93 -124 -111 -200 -11 -51
-14 -90 -9 -148 l7 -79 -32 19 c-78 45 -118 198 -86 324 52 205 189 303 521
373 11 3 79 5 150 6 101 0 142 -4 182 -18z m1184 -71 c51 -28 66 -145 28 -225
-11 -24 -43 -66 -70 -94 -60 -61 -124 -85 -229 -86 -94 0 -292 34 -303 53 -3
4 31 45 74 91 l79 84 84 -13 c45 -7 109 -11 141 -8 52 4 62 9 95 44 27 30 39
54 49 102 14 64 19 69 52 52z m-756 -30 c0 -7 -6 -15 -12 -17 -8 -3 -13 4 -13
17 0 13 5 20 13 18 6 -3 12 -11 12 -18z m780 -349 c8 -16 44 -55 80 -87 36
-32 65 -66 65 -76 0 -36 -31 -78 -71 -99 -81 -41 -155 -2 -224 116 -21 34 -25
51 -18 69 8 24 114 104 140 105 7 1 19 -12 28 -28z m-515 -41 c52 -12 135 -24
183 -27 48 -3 90 -9 92 -14 3 -4 -6 -45 -21 -91 -26 -85 -112 -243 -166 -304
-57 -64 -240 -135 -387 -150 -122 -12 -272 34 -356 107 -59 52 -62 64 -21 109
63 70 71 94 69 208 -1 56 2 102 7 102 5 0 48 -9 97 -21 62 -15 103 -19 138
-14 49 6 136 49 204 99 19 15 42 24 50 21 9 -2 59 -14 111 -25z m379 -191 c59
-67 57 -84 -8 -67 -66 18 -84 49 -59 103 6 14 12 25 12 25 1 0 26 -27 55 -61z
m-772 -684 c18 -83 35 -254 31 -317 l-3 -52 -60 -22 c-86 -30 -138 -59 -166
-90 -13 -15 -37 -41 -54 -58 l-30 -31 -3 33 c-5 46 33 286 64 407 42 168 40
163 92 179 26 8 62 14 81 13 34 -2 35 -4 48 -62z m575 -379 c92 -21 133 -58
144 -128 9 -51 -10 -105 -71 -200 -53 -84 -66 -118 -46 -118 6 0 31 27 56 60
25 33 53 60 60 60 22 0 55 -74 55 -122 0 -51 -30 -122 -68 -161 -80 -84 -294
-156 -514 -173 -103 -8 -102 -9 -102 96 0 56 4 73 32 122 45 78 53 152 22 202
-37 61 -150 126 -278 162 -73 20 -78 35 -29 81 34 33 126 80 166 85 51 6 45
-75 -7 -87 -35 -7 -67 -39 -59 -58 9 -24 90 -37 229 -37 195 1 353 44 353 96
0 27 -59 54 -122 54 -48 0 -52 2 -62 31 -19 54 -2 63 99 55 47 -4 111 -12 142
-20z m-1175 -192 c3 -9 2 -28 -3 -42 -8 -22 -18 -28 -69 -37 -71 -13 -85 -20
-85 -45 0 -40 139 -92 297 -112 109 -14 278 0 318 26 54 35 22 71 -95 106 -46
13 -55 20 -58 41 -6 47 16 52 114 24 128 -36 247 -97 273 -139 26 -42 27 -107
2 -161 -10 -22 -49 -76 -86 -120 -37 -44 -71 -88 -77 -98 -18 -35 2 -31 41 7
53 51 67 44 76 -37 13 -119 -38 -233 -123 -276 -78 -39 -138 -46 -377 -45
-194 1 -245 4 -327 22 -253 55 -333 118 -299 234 16 54 91 188 105 188 6 0 32
-24 58 -52 38 -42 47 -49 48 -32 0 11 -14 42 -32 70 -67 106 -81 148 -76 239
6 111 33 154 121 196 105 49 243 72 254 43z m1468 -440 c36 -14 65 -30 65 -35
0 -5 -20 -34 -45 -65 -128 -156 -207 -405 -221 -698 -4 -75 -11 -139 -15 -142
-12 -7 -201 25 -215 37 -44 37 -8 385 63 604 44 138 74 185 144 225 34 19 75
50 92 67 18 18 40 33 49 33 10 0 47 -12 83 -26z m-1609 -488 c44 -8 110 -17
148 -21 38 -3 82 -13 98 -21 36 -18 98 -81 150 -151 82 -111 223 -411 234
-498 4 -37 0 -45 -49 -105 -29 -36 -59 -65 -67 -65 -9 0 -20 20 -28 50 -36
135 -68 228 -108 307 -126 255 -300 379 -455 326 -98 -33 -211 -144 -303 -298
-26 -45 -50 -79 -52 -77 -7 7 17 200 30 237 37 106 194 284 278 313 24 9 44
16 44 16 1 1 37 -5 80 -13z"/>
<path d="M3768 6630 c-30 -23 -51 -71 -75 -172 -14 -58 -18 -116 -18 -283 0
-198 2 -213 23 -260 29 -61 49 -85 74 -85 91 0 160 200 160 464 -1 221 -27
323 -88 346 -36 14 -48 13 -76 -10z m63 -102 c15 -28 6 -186 -12 -216 -33 -53
-59 -13 -59 93 0 116 39 183 71 123z"/>
<path d="M3417 5536 c-96 -36 -150 -130 -115 -202 17 -36 44 -47 32 -13 -10
28 -10 77 0 86 3 3 39 -25 79 -64 39 -38 90 -81 112 -95 123 -77 360 -127 484
-102 59 12 31 21 -81 27 -120 6 -233 34 -332 84 -61 31 -150 113 -184 172
l-25 43 24 19 c19 14 42 19 102 19 42 0 77 4 77 9 0 24 -121 37 -173 17z"/>
</g>
</svg>
